<svg width="100" height="100" viewBox="0 0 100 100" fill="none" xmlns="http://www.w3.org/2000/svg">
<circle cx="50" cy="50" r="50" fill="#273FAD"/>
<path d="M35.343 53.68V56H33.951C32.959 56 32.1857 55.76 31.631 55.28C31.0763 54.7893 30.799 53.9947 30.799 52.896V49.344H29.711V47.072H30.799V44.896H33.535V47.072H35.327V49.344H33.535V52.928C33.535 53.1947 33.599 53.3867 33.727 53.504C33.855 53.6213 34.0683 53.68 34.367 53.68H35.343ZM40.931 56.128C40.0563 56.128 39.267 55.9413 38.563 55.568C37.8697 55.1947 37.3203 54.6613 36.915 53.968C36.5203 53.2747 36.323 52.464 36.323 51.536C36.323 50.6187 36.5257 49.8133 36.931 49.12C37.3363 48.416 37.891 47.8773 38.595 47.504C39.299 47.1307 40.0883 46.944 40.963 46.944C41.8377 46.944 42.627 47.1307 43.331 47.504C44.035 47.8773 44.5897 48.416 44.995 49.12C45.4003 49.8133 45.603 50.6187 45.603 51.536C45.603 52.4533 45.395 53.264 44.979 53.968C44.5737 54.6613 44.0137 55.1947 43.299 55.568C42.595 55.9413 41.8057 56.128 40.931 56.128ZM40.931 53.76C41.4537 53.76 41.8963 53.568 42.259 53.184C42.6323 52.8 42.819 52.2507 42.819 51.536C42.819 50.8213 42.6377 50.272 42.275 49.888C41.923 49.504 41.4857 49.312 40.963 49.312C40.4297 49.312 39.987 49.504 39.635 49.888C39.283 50.2613 39.107 50.8107 39.107 51.536C39.107 52.2507 39.2777 52.8 39.619 53.184C39.971 53.568 40.4083 53.76 40.931 53.76ZM48.3345 56.128C47.8545 56.128 47.4598 55.9893 47.1505 55.712C46.8518 55.424 46.7025 55.072 46.7025 54.656C46.7025 54.2293 46.8518 53.872 47.1505 53.584C47.4598 53.296 47.8545 53.152 48.3345 53.152C48.8038 53.152 49.1878 53.296 49.4865 53.584C49.7958 53.872 49.9505 54.2293 49.9505 54.656C49.9505 55.072 49.7958 55.424 49.4865 55.712C49.1878 55.9893 48.8038 56.128 48.3345 56.128ZM51.0261 51.52C51.0261 50.6027 51.1968 49.7973 51.5381 49.104C51.8901 48.4107 52.3648 47.8773 52.9621 47.504C53.5595 47.1307 54.2261 46.944 54.9621 46.944C55.5488 46.944 56.0821 47.0667 56.5621 47.312C57.0528 47.5573 57.4368 47.888 57.7141 48.304V44.16H60.4501V56H57.7141V54.72C57.4581 55.1467 57.0901 55.488 56.6101 55.744C56.1408 56 55.5915 56.128 54.9621 56.128C54.2261 56.128 53.5595 55.9413 52.9621 55.568C52.3648 55.184 51.8901 54.6453 51.5381 53.952C51.1968 53.248 51.0261 52.4373 51.0261 51.52ZM57.7141 51.536C57.7141 50.8533 57.5221 50.3147 57.1381 49.92C56.7648 49.5253 56.3061 49.328 55.7621 49.328C55.2181 49.328 54.7541 49.5253 54.3701 49.92C53.9968 50.304 53.8101 50.8373 53.8101 51.52C53.8101 52.2027 53.9968 52.7467 54.3701 53.152C54.7541 53.5467 55.2181 53.744 55.7621 53.744C56.3061 53.744 56.7648 53.5467 57.1381 53.152C57.5221 52.7573 57.7141 52.2187 57.7141 51.536ZM66.4935 56.128C65.6188 56.128 64.8295 55.9413 64.1255 55.568C63.4322 55.1947 62.8828 54.6613 62.4775 53.968C62.0828 53.2747 61.8855 52.464 61.8855 51.536C61.8855 50.6187 62.0882 49.8133 62.4935 49.12C62.8988 48.416 63.4535 47.8773 64.1575 47.504C64.8615 47.1307 65.6508 46.944 66.5255 46.944C67.4002 46.944 68.1895 47.1307 68.8935 47.504C69.5975 47.8773 70.1522 48.416 70.5575 49.12C70.9628 49.8133 71.1655 50.6187 71.1655 51.536C71.1655 52.4533 70.9575 53.264 70.5415 53.968C70.1362 54.6613 69.5762 55.1947 68.8615 55.568C68.1575 55.9413 67.3682 56.128 66.4935 56.128ZM66.4935 53.76C67.0162 53.76 67.4588 53.568 67.8215 53.184C68.1948 52.8 68.3815 52.2507 68.3815 51.536C68.3815 50.8213 68.2002 50.272 67.8375 49.888C67.4855 49.504 67.0482 49.312 66.5255 49.312C65.9922 49.312 65.5495 49.504 65.1975 49.888C64.8455 50.2613 64.6695 50.8107 64.6695 51.536C64.6695 52.2507 64.8402 52.8 65.1815 53.184C65.5335 53.568 65.9708 53.76 66.4935 53.76Z" fill="white"/>
</svg>
